<mxfile host="app.diagrams.net" modified="2023-11-08T09:47:14.303Z" agent="Mozilla/5.0 (Windows NT 10.0; Win64; x64) AppleWebKit/537.36 (KHTML, like Gecko) Chrome/118.0.0.0 Safari/537.36" etag="nOlcjrO4SvpiHdBWbUK8" version="22.0.8" type="gitlab">
  <diagram name="Page-1" id="03018318-947c-dd8e-b7a3-06fadd420f32">
    <mxGraphModel dx="1687" dy="999" grid="1" gridSize="10" guides="1" tooltips="1" connect="1" arrows="1" fold="1" page="1" pageScale="1" pageWidth="1100" pageHeight="850" background="none" math="0" shadow="0">
      <root>
        <mxCell id="0" />
        <mxCell id="1" parent="0" />
        <mxCell id="_vVUh05pe-uiF_YAsJHq-1" value="" style="whiteSpace=wrap;html=1;rounded=0;shadow=0;labelBackgroundColor=none;strokeColor=#000000;strokeWidth=1;fillColor=none;fontFamily=Verdana;fontSize=12;fontColor=#000000;align=center;comic=1;" vertex="1" parent="1">
          <mxGeometry x="40" y="40" width="1340" height="760" as="geometry" />
        </mxCell>
        <mxCell id="_vVUh05pe-uiF_YAsJHq-2" value="" style="line;strokeWidth=1;html=1;rounded=0;shadow=0;labelBackgroundColor=none;fillColor=none;fontFamily=Verdana;fontSize=14;fontColor=#000000;align=center;comic=1;" vertex="1" parent="1">
          <mxGeometry x="50" y="160" width="1290" height="10" as="geometry" />
        </mxCell>
        <mxCell id="_vVUh05pe-uiF_YAsJHq-3" value="" style="whiteSpace=wrap;html=1;rounded=0;shadow=0;labelBackgroundColor=none;strokeWidth=1;fillColor=none;fontFamily=Verdana;fontSize=12;align=center;comic=1;" vertex="1" parent="1">
          <mxGeometry x="60" y="180" width="1280" height="50" as="geometry" />
        </mxCell>
        <mxCell id="_vVUh05pe-uiF_YAsJHq-4" value="Home" style="text;html=1;points=[];align=left;verticalAlign=top;spacingTop=-4;fontSize=14;fontFamily=Verdana" vertex="1" parent="1">
          <mxGeometry x="568.5" y="195" width="60" height="20" as="geometry" />
        </mxCell>
        <mxCell id="_vVUh05pe-uiF_YAsJHq-5" value="Prediction" style="text;html=1;points=[];align=left;verticalAlign=top;spacingTop=-4;fontSize=14;fontFamily=Verdana" vertex="1" parent="1">
          <mxGeometry x="715.5" y="195" width="60" height="20" as="geometry" />
        </mxCell>
        <mxCell id="_vVUh05pe-uiF_YAsJHq-6" value="History" style="text;html=1;points=[];align=left;verticalAlign=top;spacingTop=-4;fontSize=14;fontFamily=Verdana" vertex="1" parent="1">
          <mxGeometry x="861.5" y="195" width="60" height="20" as="geometry" />
        </mxCell>
        <mxCell id="_vVUh05pe-uiF_YAsJHq-7" value="LOGO" style="html=1;whiteSpace=wrap;" vertex="1" parent="1">
          <mxGeometry x="70" y="80" width="110" height="50" as="geometry" />
        </mxCell>
        <mxCell id="_vVUh05pe-uiF_YAsJHq-8" value="&lt;font size=&quot;1&quot; style=&quot;&quot;&gt;&lt;b style=&quot;font-size: 17px;&quot;&gt;Logout&lt;/b&gt;&lt;/font&gt;" style="rounded=1;whiteSpace=wrap;html=1;fillColor=#f8cecc;strokeColor=#b85450;" vertex="1" parent="1">
          <mxGeometry x="1250" y="85" width="90" height="40" as="geometry" />
        </mxCell>
        <mxCell id="_vVUh05pe-uiF_YAsJHq-54" value="Assets" style="childLayout=tableLayout;recursiveResize=0;strokeColor=#98bf21;fillColor=#A7C942;shadow=1;" vertex="1" parent="1">
          <mxGeometry x="60" y="390" width="1290" height="267" as="geometry" />
        </mxCell>
        <mxCell id="_vVUh05pe-uiF_YAsJHq-55" style="shape=tableRow;horizontal=0;startSize=0;swimlaneHead=0;swimlaneBody=0;top=0;left=0;bottom=0;right=0;dropTarget=0;collapsible=0;recursiveResize=0;expand=0;fontStyle=0;strokeColor=inherit;fillColor=#ffffff;" vertex="1" parent="_vVUh05pe-uiF_YAsJHq-54">
          <mxGeometry width="1290" height="64" as="geometry" />
        </mxCell>
        <mxCell id="_vVUh05pe-uiF_YAsJHq-56" value="Car&amp;nbsp; Brand" style="connectable=0;recursiveResize=0;strokeColor=inherit;fillColor=#A7C942;align=center;fontStyle=1;fontColor=#FFFFFF;html=1;" vertex="1" parent="_vVUh05pe-uiF_YAsJHq-55">
          <mxGeometry width="76" height="64" as="geometry">
            <mxRectangle width="76" height="64" as="alternateBounds" />
          </mxGeometry>
        </mxCell>
        <mxCell id="_vVUh05pe-uiF_YAsJHq-57" value="Drive Wheel" style="connectable=0;recursiveResize=0;strokeColor=inherit;fillColor=#A7C942;align=center;fontStyle=1;fontColor=#FFFFFF;html=1;" vertex="1" parent="_vVUh05pe-uiF_YAsJHq-55">
          <mxGeometry x="76" width="76" height="64" as="geometry">
            <mxRectangle width="76" height="64" as="alternateBounds" />
          </mxGeometry>
        </mxCell>
        <mxCell id="_vVUh05pe-uiF_YAsJHq-58" value="Aspiration" style="connectable=0;recursiveResize=0;strokeColor=inherit;fillColor=#A7C942;align=center;fontStyle=1;fontColor=#FFFFFF;html=1;" vertex="1" parent="_vVUh05pe-uiF_YAsJHq-55">
          <mxGeometry x="152" width="77" height="64" as="geometry">
            <mxRectangle width="77" height="64" as="alternateBounds" />
          </mxGeometry>
        </mxCell>
        <mxCell id="_vVUh05pe-uiF_YAsJHq-130" value="Engine Type" style="connectable=0;recursiveResize=0;strokeColor=inherit;fillColor=#A7C942;align=center;fontStyle=1;fontColor=#FFFFFF;html=1;" vertex="1" parent="_vVUh05pe-uiF_YAsJHq-55">
          <mxGeometry x="229" width="76" height="64" as="geometry">
            <mxRectangle width="76" height="64" as="alternateBounds" />
          </mxGeometry>
        </mxCell>
        <mxCell id="_vVUh05pe-uiF_YAsJHq-125" value="Car Body" style="connectable=0;recursiveResize=0;strokeColor=inherit;fillColor=#A7C942;align=center;fontStyle=1;fontColor=#FFFFFF;html=1;" vertex="1" parent="_vVUh05pe-uiF_YAsJHq-55">
          <mxGeometry x="305" width="74" height="64" as="geometry">
            <mxRectangle width="74" height="64" as="alternateBounds" />
          </mxGeometry>
        </mxCell>
        <mxCell id="_vVUh05pe-uiF_YAsJHq-120" value="Number of &lt;br&gt;Cylinders" style="connectable=0;recursiveResize=0;strokeColor=inherit;fillColor=#A7C942;align=center;fontStyle=1;fontColor=#FFFFFF;html=1;" vertex="1" parent="_vVUh05pe-uiF_YAsJHq-55">
          <mxGeometry x="379" width="77" height="64" as="geometry">
            <mxRectangle width="77" height="64" as="alternateBounds" />
          </mxGeometry>
        </mxCell>
        <mxCell id="_vVUh05pe-uiF_YAsJHq-115" value="City mpg" style="connectable=0;recursiveResize=0;strokeColor=inherit;fillColor=#A7C942;align=center;fontStyle=1;fontColor=#FFFFFF;html=1;" vertex="1" parent="_vVUh05pe-uiF_YAsJHq-55">
          <mxGeometry x="456" width="76" height="64" as="geometry">
            <mxRectangle width="76" height="64" as="alternateBounds" />
          </mxGeometry>
        </mxCell>
        <mxCell id="_vVUh05pe-uiF_YAsJHq-110" value="Highway &lt;br&gt;mpg" style="connectable=0;recursiveResize=0;strokeColor=inherit;fillColor=#A7C942;align=center;fontStyle=1;fontColor=#FFFFFF;html=1;" vertex="1" parent="_vVUh05pe-uiF_YAsJHq-55">
          <mxGeometry x="532" width="75" height="64" as="geometry">
            <mxRectangle width="75" height="64" as="alternateBounds" />
          </mxGeometry>
        </mxCell>
        <mxCell id="_vVUh05pe-uiF_YAsJHq-105" value="Car Length" style="connectable=0;recursiveResize=0;strokeColor=inherit;fillColor=#A7C942;align=center;fontStyle=1;fontColor=#FFFFFF;html=1;" vertex="1" parent="_vVUh05pe-uiF_YAsJHq-55">
          <mxGeometry x="607" width="76" height="64" as="geometry">
            <mxRectangle width="76" height="64" as="alternateBounds" />
          </mxGeometry>
        </mxCell>
        <mxCell id="_vVUh05pe-uiF_YAsJHq-100" value="Car Width" style="connectable=0;recursiveResize=0;strokeColor=inherit;fillColor=#A7C942;align=center;fontStyle=1;fontColor=#FFFFFF;html=1;" vertex="1" parent="_vVUh05pe-uiF_YAsJHq-55">
          <mxGeometry x="683" width="77" height="64" as="geometry">
            <mxRectangle width="77" height="64" as="alternateBounds" />
          </mxGeometry>
        </mxCell>
        <mxCell id="_vVUh05pe-uiF_YAsJHq-95" value="Curb Weight" style="connectable=0;recursiveResize=0;strokeColor=inherit;fillColor=#A7C942;align=center;fontStyle=1;fontColor=#FFFFFF;html=1;" vertex="1" parent="_vVUh05pe-uiF_YAsJHq-55">
          <mxGeometry x="760" width="75" height="64" as="geometry">
            <mxRectangle width="75" height="64" as="alternateBounds" />
          </mxGeometry>
        </mxCell>
        <mxCell id="_vVUh05pe-uiF_YAsJHq-90" value="Engine Size" style="connectable=0;recursiveResize=0;strokeColor=inherit;fillColor=#A7C942;align=center;fontStyle=1;fontColor=#FFFFFF;html=1;" vertex="1" parent="_vVUh05pe-uiF_YAsJHq-55">
          <mxGeometry x="835" width="76" height="64" as="geometry">
            <mxRectangle width="76" height="64" as="alternateBounds" />
          </mxGeometry>
        </mxCell>
        <mxCell id="_vVUh05pe-uiF_YAsJHq-85" value="Horsepower" style="connectable=0;recursiveResize=0;strokeColor=inherit;fillColor=#A7C942;align=center;fontStyle=1;fontColor=#FFFFFF;html=1;" vertex="1" parent="_vVUh05pe-uiF_YAsJHq-55">
          <mxGeometry x="911" width="75" height="64" as="geometry">
            <mxRectangle width="75" height="64" as="alternateBounds" />
          </mxGeometry>
        </mxCell>
        <mxCell id="_vVUh05pe-uiF_YAsJHq-75" value="Bore Ratio" style="connectable=0;recursiveResize=0;strokeColor=inherit;fillColor=#A7C942;align=center;fontStyle=1;fontColor=#FFFFFF;html=1;" vertex="1" parent="_vVUh05pe-uiF_YAsJHq-55">
          <mxGeometry x="986" width="76" height="64" as="geometry">
            <mxRectangle width="76" height="64" as="alternateBounds" />
          </mxGeometry>
        </mxCell>
        <mxCell id="_vVUh05pe-uiF_YAsJHq-80" value="Wheelbase" style="connectable=0;recursiveResize=0;strokeColor=inherit;fillColor=#A7C942;align=center;fontStyle=1;fontColor=#FFFFFF;html=1;" vertex="1" parent="_vVUh05pe-uiF_YAsJHq-55">
          <mxGeometry x="1062" width="76" height="64" as="geometry">
            <mxRectangle width="76" height="64" as="alternateBounds" />
          </mxGeometry>
        </mxCell>
        <mxCell id="_vVUh05pe-uiF_YAsJHq-135" value="Prediction" style="connectable=0;recursiveResize=0;strokeColor=inherit;fillColor=#A7C942;align=center;fontStyle=1;fontColor=#FFFFFF;html=1;" vertex="1" parent="_vVUh05pe-uiF_YAsJHq-55">
          <mxGeometry x="1138" width="76" height="64" as="geometry">
            <mxRectangle width="76" height="64" as="alternateBounds" />
          </mxGeometry>
        </mxCell>
        <mxCell id="_vVUh05pe-uiF_YAsJHq-146" value="Delete" style="connectable=0;recursiveResize=0;strokeColor=inherit;fillColor=#A7C942;align=center;fontStyle=1;fontColor=#FFFFFF;html=1;" vertex="1" parent="_vVUh05pe-uiF_YAsJHq-55">
          <mxGeometry x="1214" width="76" height="64" as="geometry">
            <mxRectangle width="76" height="64" as="alternateBounds" />
          </mxGeometry>
        </mxCell>
        <mxCell id="_vVUh05pe-uiF_YAsJHq-59" value="" style="shape=tableRow;horizontal=0;startSize=0;swimlaneHead=0;swimlaneBody=0;top=0;left=0;bottom=0;right=0;dropTarget=0;collapsible=0;recursiveResize=0;expand=0;fontStyle=0;strokeColor=inherit;fillColor=#ffffff;" vertex="1" parent="_vVUh05pe-uiF_YAsJHq-54">
          <mxGeometry y="64" width="1290" height="51" as="geometry" />
        </mxCell>
        <mxCell id="_vVUh05pe-uiF_YAsJHq-60" value="Value 1" style="connectable=0;recursiveResize=0;strokeColor=inherit;fillColor=inherit;align=center;whiteSpace=wrap;html=1;" vertex="1" parent="_vVUh05pe-uiF_YAsJHq-59">
          <mxGeometry width="76" height="51" as="geometry">
            <mxRectangle width="76" height="51" as="alternateBounds" />
          </mxGeometry>
        </mxCell>
        <mxCell id="_vVUh05pe-uiF_YAsJHq-61" value="Value 2" style="connectable=0;recursiveResize=0;strokeColor=inherit;fillColor=inherit;align=center;whiteSpace=wrap;html=1;" vertex="1" parent="_vVUh05pe-uiF_YAsJHq-59">
          <mxGeometry x="76" width="76" height="51" as="geometry">
            <mxRectangle width="76" height="51" as="alternateBounds" />
          </mxGeometry>
        </mxCell>
        <mxCell id="_vVUh05pe-uiF_YAsJHq-62" value="Value 3" style="connectable=0;recursiveResize=0;strokeColor=inherit;fillColor=inherit;align=center;whiteSpace=wrap;html=1;" vertex="1" parent="_vVUh05pe-uiF_YAsJHq-59">
          <mxGeometry x="152" width="77" height="51" as="geometry">
            <mxRectangle width="77" height="51" as="alternateBounds" />
          </mxGeometry>
        </mxCell>
        <mxCell id="_vVUh05pe-uiF_YAsJHq-131" style="connectable=0;recursiveResize=0;strokeColor=inherit;fillColor=inherit;align=center;whiteSpace=wrap;html=1;" vertex="1" parent="_vVUh05pe-uiF_YAsJHq-59">
          <mxGeometry x="229" width="76" height="51" as="geometry">
            <mxRectangle width="76" height="51" as="alternateBounds" />
          </mxGeometry>
        </mxCell>
        <mxCell id="_vVUh05pe-uiF_YAsJHq-126" style="connectable=0;recursiveResize=0;strokeColor=inherit;fillColor=inherit;align=center;whiteSpace=wrap;html=1;" vertex="1" parent="_vVUh05pe-uiF_YAsJHq-59">
          <mxGeometry x="305" width="74" height="51" as="geometry">
            <mxRectangle width="74" height="51" as="alternateBounds" />
          </mxGeometry>
        </mxCell>
        <mxCell id="_vVUh05pe-uiF_YAsJHq-121" style="connectable=0;recursiveResize=0;strokeColor=inherit;fillColor=inherit;align=center;whiteSpace=wrap;html=1;" vertex="1" parent="_vVUh05pe-uiF_YAsJHq-59">
          <mxGeometry x="379" width="77" height="51" as="geometry">
            <mxRectangle width="77" height="51" as="alternateBounds" />
          </mxGeometry>
        </mxCell>
        <mxCell id="_vVUh05pe-uiF_YAsJHq-116" style="connectable=0;recursiveResize=0;strokeColor=inherit;fillColor=inherit;align=center;whiteSpace=wrap;html=1;" vertex="1" parent="_vVUh05pe-uiF_YAsJHq-59">
          <mxGeometry x="456" width="76" height="51" as="geometry">
            <mxRectangle width="76" height="51" as="alternateBounds" />
          </mxGeometry>
        </mxCell>
        <mxCell id="_vVUh05pe-uiF_YAsJHq-111" style="connectable=0;recursiveResize=0;strokeColor=inherit;fillColor=inherit;align=center;whiteSpace=wrap;html=1;" vertex="1" parent="_vVUh05pe-uiF_YAsJHq-59">
          <mxGeometry x="532" width="75" height="51" as="geometry">
            <mxRectangle width="75" height="51" as="alternateBounds" />
          </mxGeometry>
        </mxCell>
        <mxCell id="_vVUh05pe-uiF_YAsJHq-106" style="connectable=0;recursiveResize=0;strokeColor=inherit;fillColor=inherit;align=center;whiteSpace=wrap;html=1;" vertex="1" parent="_vVUh05pe-uiF_YAsJHq-59">
          <mxGeometry x="607" width="76" height="51" as="geometry">
            <mxRectangle width="76" height="51" as="alternateBounds" />
          </mxGeometry>
        </mxCell>
        <mxCell id="_vVUh05pe-uiF_YAsJHq-101" style="connectable=0;recursiveResize=0;strokeColor=inherit;fillColor=inherit;align=center;whiteSpace=wrap;html=1;" vertex="1" parent="_vVUh05pe-uiF_YAsJHq-59">
          <mxGeometry x="683" width="77" height="51" as="geometry">
            <mxRectangle width="77" height="51" as="alternateBounds" />
          </mxGeometry>
        </mxCell>
        <mxCell id="_vVUh05pe-uiF_YAsJHq-96" style="connectable=0;recursiveResize=0;strokeColor=inherit;fillColor=inherit;align=center;whiteSpace=wrap;html=1;" vertex="1" parent="_vVUh05pe-uiF_YAsJHq-59">
          <mxGeometry x="760" width="75" height="51" as="geometry">
            <mxRectangle width="75" height="51" as="alternateBounds" />
          </mxGeometry>
        </mxCell>
        <mxCell id="_vVUh05pe-uiF_YAsJHq-91" style="connectable=0;recursiveResize=0;strokeColor=inherit;fillColor=inherit;align=center;whiteSpace=wrap;html=1;" vertex="1" parent="_vVUh05pe-uiF_YAsJHq-59">
          <mxGeometry x="835" width="76" height="51" as="geometry">
            <mxRectangle width="76" height="51" as="alternateBounds" />
          </mxGeometry>
        </mxCell>
        <mxCell id="_vVUh05pe-uiF_YAsJHq-86" style="connectable=0;recursiveResize=0;strokeColor=inherit;fillColor=inherit;align=center;whiteSpace=wrap;html=1;" vertex="1" parent="_vVUh05pe-uiF_YAsJHq-59">
          <mxGeometry x="911" width="75" height="51" as="geometry">
            <mxRectangle width="75" height="51" as="alternateBounds" />
          </mxGeometry>
        </mxCell>
        <mxCell id="_vVUh05pe-uiF_YAsJHq-76" style="connectable=0;recursiveResize=0;strokeColor=inherit;fillColor=inherit;align=center;whiteSpace=wrap;html=1;" vertex="1" parent="_vVUh05pe-uiF_YAsJHq-59">
          <mxGeometry x="986" width="76" height="51" as="geometry">
            <mxRectangle width="76" height="51" as="alternateBounds" />
          </mxGeometry>
        </mxCell>
        <mxCell id="_vVUh05pe-uiF_YAsJHq-81" style="connectable=0;recursiveResize=0;strokeColor=inherit;fillColor=inherit;align=center;whiteSpace=wrap;html=1;" vertex="1" parent="_vVUh05pe-uiF_YAsJHq-59">
          <mxGeometry x="1062" width="76" height="51" as="geometry">
            <mxRectangle width="76" height="51" as="alternateBounds" />
          </mxGeometry>
        </mxCell>
        <mxCell id="_vVUh05pe-uiF_YAsJHq-136" style="connectable=0;recursiveResize=0;strokeColor=inherit;fillColor=inherit;align=center;whiteSpace=wrap;html=1;" vertex="1" parent="_vVUh05pe-uiF_YAsJHq-59">
          <mxGeometry x="1138" width="76" height="51" as="geometry">
            <mxRectangle width="76" height="51" as="alternateBounds" />
          </mxGeometry>
        </mxCell>
        <mxCell id="_vVUh05pe-uiF_YAsJHq-147" style="connectable=0;recursiveResize=0;strokeColor=inherit;fillColor=inherit;align=center;whiteSpace=wrap;html=1;" vertex="1" parent="_vVUh05pe-uiF_YAsJHq-59">
          <mxGeometry x="1214" width="76" height="51" as="geometry">
            <mxRectangle width="76" height="51" as="alternateBounds" />
          </mxGeometry>
        </mxCell>
        <mxCell id="_vVUh05pe-uiF_YAsJHq-63" value="" style="shape=tableRow;horizontal=0;startSize=0;swimlaneHead=0;swimlaneBody=0;top=0;left=0;bottom=0;right=0;dropTarget=0;collapsible=0;recursiveResize=0;expand=0;fontStyle=1;strokeColor=inherit;fillColor=#EAF2D3;" vertex="1" parent="_vVUh05pe-uiF_YAsJHq-54">
          <mxGeometry y="115" width="1290" height="50" as="geometry" />
        </mxCell>
        <mxCell id="_vVUh05pe-uiF_YAsJHq-64" value="Value 4" style="connectable=0;recursiveResize=0;strokeColor=inherit;fillColor=inherit;whiteSpace=wrap;html=1;" vertex="1" parent="_vVUh05pe-uiF_YAsJHq-63">
          <mxGeometry width="76" height="50" as="geometry">
            <mxRectangle width="76" height="50" as="alternateBounds" />
          </mxGeometry>
        </mxCell>
        <mxCell id="_vVUh05pe-uiF_YAsJHq-65" value="Value 5" style="connectable=0;recursiveResize=0;strokeColor=inherit;fillColor=inherit;whiteSpace=wrap;html=1;" vertex="1" parent="_vVUh05pe-uiF_YAsJHq-63">
          <mxGeometry x="76" width="76" height="50" as="geometry">
            <mxRectangle width="76" height="50" as="alternateBounds" />
          </mxGeometry>
        </mxCell>
        <mxCell id="_vVUh05pe-uiF_YAsJHq-66" value="Value 6" style="connectable=0;recursiveResize=0;strokeColor=inherit;fillColor=inherit;whiteSpace=wrap;html=1;" vertex="1" parent="_vVUh05pe-uiF_YAsJHq-63">
          <mxGeometry x="152" width="77" height="50" as="geometry">
            <mxRectangle width="77" height="50" as="alternateBounds" />
          </mxGeometry>
        </mxCell>
        <mxCell id="_vVUh05pe-uiF_YAsJHq-132" style="connectable=0;recursiveResize=0;strokeColor=inherit;fillColor=inherit;whiteSpace=wrap;html=1;" vertex="1" parent="_vVUh05pe-uiF_YAsJHq-63">
          <mxGeometry x="229" width="76" height="50" as="geometry">
            <mxRectangle width="76" height="50" as="alternateBounds" />
          </mxGeometry>
        </mxCell>
        <mxCell id="_vVUh05pe-uiF_YAsJHq-127" style="connectable=0;recursiveResize=0;strokeColor=inherit;fillColor=inherit;whiteSpace=wrap;html=1;" vertex="1" parent="_vVUh05pe-uiF_YAsJHq-63">
          <mxGeometry x="305" width="74" height="50" as="geometry">
            <mxRectangle width="74" height="50" as="alternateBounds" />
          </mxGeometry>
        </mxCell>
        <mxCell id="_vVUh05pe-uiF_YAsJHq-122" style="connectable=0;recursiveResize=0;strokeColor=inherit;fillColor=inherit;whiteSpace=wrap;html=1;" vertex="1" parent="_vVUh05pe-uiF_YAsJHq-63">
          <mxGeometry x="379" width="77" height="50" as="geometry">
            <mxRectangle width="77" height="50" as="alternateBounds" />
          </mxGeometry>
        </mxCell>
        <mxCell id="_vVUh05pe-uiF_YAsJHq-117" style="connectable=0;recursiveResize=0;strokeColor=inherit;fillColor=inherit;whiteSpace=wrap;html=1;" vertex="1" parent="_vVUh05pe-uiF_YAsJHq-63">
          <mxGeometry x="456" width="76" height="50" as="geometry">
            <mxRectangle width="76" height="50" as="alternateBounds" />
          </mxGeometry>
        </mxCell>
        <mxCell id="_vVUh05pe-uiF_YAsJHq-112" style="connectable=0;recursiveResize=0;strokeColor=inherit;fillColor=inherit;whiteSpace=wrap;html=1;" vertex="1" parent="_vVUh05pe-uiF_YAsJHq-63">
          <mxGeometry x="532" width="75" height="50" as="geometry">
            <mxRectangle width="75" height="50" as="alternateBounds" />
          </mxGeometry>
        </mxCell>
        <mxCell id="_vVUh05pe-uiF_YAsJHq-107" style="connectable=0;recursiveResize=0;strokeColor=inherit;fillColor=inherit;whiteSpace=wrap;html=1;" vertex="1" parent="_vVUh05pe-uiF_YAsJHq-63">
          <mxGeometry x="607" width="76" height="50" as="geometry">
            <mxRectangle width="76" height="50" as="alternateBounds" />
          </mxGeometry>
        </mxCell>
        <mxCell id="_vVUh05pe-uiF_YAsJHq-102" style="connectable=0;recursiveResize=0;strokeColor=inherit;fillColor=inherit;whiteSpace=wrap;html=1;" vertex="1" parent="_vVUh05pe-uiF_YAsJHq-63">
          <mxGeometry x="683" width="77" height="50" as="geometry">
            <mxRectangle width="77" height="50" as="alternateBounds" />
          </mxGeometry>
        </mxCell>
        <mxCell id="_vVUh05pe-uiF_YAsJHq-97" style="connectable=0;recursiveResize=0;strokeColor=inherit;fillColor=inherit;whiteSpace=wrap;html=1;" vertex="1" parent="_vVUh05pe-uiF_YAsJHq-63">
          <mxGeometry x="760" width="75" height="50" as="geometry">
            <mxRectangle width="75" height="50" as="alternateBounds" />
          </mxGeometry>
        </mxCell>
        <mxCell id="_vVUh05pe-uiF_YAsJHq-92" style="connectable=0;recursiveResize=0;strokeColor=inherit;fillColor=inherit;whiteSpace=wrap;html=1;" vertex="1" parent="_vVUh05pe-uiF_YAsJHq-63">
          <mxGeometry x="835" width="76" height="50" as="geometry">
            <mxRectangle width="76" height="50" as="alternateBounds" />
          </mxGeometry>
        </mxCell>
        <mxCell id="_vVUh05pe-uiF_YAsJHq-87" style="connectable=0;recursiveResize=0;strokeColor=inherit;fillColor=inherit;whiteSpace=wrap;html=1;" vertex="1" parent="_vVUh05pe-uiF_YAsJHq-63">
          <mxGeometry x="911" width="75" height="50" as="geometry">
            <mxRectangle width="75" height="50" as="alternateBounds" />
          </mxGeometry>
        </mxCell>
        <mxCell id="_vVUh05pe-uiF_YAsJHq-77" style="connectable=0;recursiveResize=0;strokeColor=inherit;fillColor=inherit;whiteSpace=wrap;html=1;" vertex="1" parent="_vVUh05pe-uiF_YAsJHq-63">
          <mxGeometry x="986" width="76" height="50" as="geometry">
            <mxRectangle width="76" height="50" as="alternateBounds" />
          </mxGeometry>
        </mxCell>
        <mxCell id="_vVUh05pe-uiF_YAsJHq-82" style="connectable=0;recursiveResize=0;strokeColor=inherit;fillColor=inherit;whiteSpace=wrap;html=1;" vertex="1" parent="_vVUh05pe-uiF_YAsJHq-63">
          <mxGeometry x="1062" width="76" height="50" as="geometry">
            <mxRectangle width="76" height="50" as="alternateBounds" />
          </mxGeometry>
        </mxCell>
        <mxCell id="_vVUh05pe-uiF_YAsJHq-137" style="connectable=0;recursiveResize=0;strokeColor=inherit;fillColor=inherit;whiteSpace=wrap;html=1;" vertex="1" parent="_vVUh05pe-uiF_YAsJHq-63">
          <mxGeometry x="1138" width="76" height="50" as="geometry">
            <mxRectangle width="76" height="50" as="alternateBounds" />
          </mxGeometry>
        </mxCell>
        <mxCell id="_vVUh05pe-uiF_YAsJHq-148" style="connectable=0;recursiveResize=0;strokeColor=inherit;fillColor=inherit;whiteSpace=wrap;html=1;" vertex="1" parent="_vVUh05pe-uiF_YAsJHq-63">
          <mxGeometry x="1214" width="76" height="50" as="geometry">
            <mxRectangle width="76" height="50" as="alternateBounds" />
          </mxGeometry>
        </mxCell>
        <mxCell id="_vVUh05pe-uiF_YAsJHq-67" value="" style="shape=tableRow;horizontal=0;startSize=0;swimlaneHead=0;swimlaneBody=0;top=0;left=0;bottom=0;right=0;dropTarget=0;collapsible=0;recursiveResize=0;expand=0;fontStyle=0;strokeColor=inherit;fillColor=#ffffff;" vertex="1" parent="_vVUh05pe-uiF_YAsJHq-54">
          <mxGeometry y="165" width="1290" height="53" as="geometry" />
        </mxCell>
        <mxCell id="_vVUh05pe-uiF_YAsJHq-68" value="Value 7" style="connectable=0;recursiveResize=0;strokeColor=inherit;fillColor=inherit;fontStyle=0;align=center;whiteSpace=wrap;html=1;" vertex="1" parent="_vVUh05pe-uiF_YAsJHq-67">
          <mxGeometry width="76" height="53" as="geometry">
            <mxRectangle width="76" height="53" as="alternateBounds" />
          </mxGeometry>
        </mxCell>
        <mxCell id="_vVUh05pe-uiF_YAsJHq-69" value="Value 8" style="connectable=0;recursiveResize=0;strokeColor=inherit;fillColor=inherit;fontStyle=0;align=center;whiteSpace=wrap;html=1;" vertex="1" parent="_vVUh05pe-uiF_YAsJHq-67">
          <mxGeometry x="76" width="76" height="53" as="geometry">
            <mxRectangle width="76" height="53" as="alternateBounds" />
          </mxGeometry>
        </mxCell>
        <mxCell id="_vVUh05pe-uiF_YAsJHq-70" value="Value 9" style="connectable=0;recursiveResize=0;strokeColor=inherit;fillColor=inherit;fontStyle=0;align=center;whiteSpace=wrap;html=1;" vertex="1" parent="_vVUh05pe-uiF_YAsJHq-67">
          <mxGeometry x="152" width="77" height="53" as="geometry">
            <mxRectangle width="77" height="53" as="alternateBounds" />
          </mxGeometry>
        </mxCell>
        <mxCell id="_vVUh05pe-uiF_YAsJHq-133" style="connectable=0;recursiveResize=0;strokeColor=inherit;fillColor=inherit;fontStyle=0;align=center;whiteSpace=wrap;html=1;" vertex="1" parent="_vVUh05pe-uiF_YAsJHq-67">
          <mxGeometry x="229" width="76" height="53" as="geometry">
            <mxRectangle width="76" height="53" as="alternateBounds" />
          </mxGeometry>
        </mxCell>
        <mxCell id="_vVUh05pe-uiF_YAsJHq-128" style="connectable=0;recursiveResize=0;strokeColor=inherit;fillColor=inherit;fontStyle=0;align=center;whiteSpace=wrap;html=1;" vertex="1" parent="_vVUh05pe-uiF_YAsJHq-67">
          <mxGeometry x="305" width="74" height="53" as="geometry">
            <mxRectangle width="74" height="53" as="alternateBounds" />
          </mxGeometry>
        </mxCell>
        <mxCell id="_vVUh05pe-uiF_YAsJHq-123" style="connectable=0;recursiveResize=0;strokeColor=inherit;fillColor=inherit;fontStyle=0;align=center;whiteSpace=wrap;html=1;" vertex="1" parent="_vVUh05pe-uiF_YAsJHq-67">
          <mxGeometry x="379" width="77" height="53" as="geometry">
            <mxRectangle width="77" height="53" as="alternateBounds" />
          </mxGeometry>
        </mxCell>
        <mxCell id="_vVUh05pe-uiF_YAsJHq-118" style="connectable=0;recursiveResize=0;strokeColor=inherit;fillColor=inherit;fontStyle=0;align=center;whiteSpace=wrap;html=1;" vertex="1" parent="_vVUh05pe-uiF_YAsJHq-67">
          <mxGeometry x="456" width="76" height="53" as="geometry">
            <mxRectangle width="76" height="53" as="alternateBounds" />
          </mxGeometry>
        </mxCell>
        <mxCell id="_vVUh05pe-uiF_YAsJHq-113" style="connectable=0;recursiveResize=0;strokeColor=inherit;fillColor=inherit;fontStyle=0;align=center;whiteSpace=wrap;html=1;" vertex="1" parent="_vVUh05pe-uiF_YAsJHq-67">
          <mxGeometry x="532" width="75" height="53" as="geometry">
            <mxRectangle width="75" height="53" as="alternateBounds" />
          </mxGeometry>
        </mxCell>
        <mxCell id="_vVUh05pe-uiF_YAsJHq-108" style="connectable=0;recursiveResize=0;strokeColor=inherit;fillColor=inherit;fontStyle=0;align=center;whiteSpace=wrap;html=1;" vertex="1" parent="_vVUh05pe-uiF_YAsJHq-67">
          <mxGeometry x="607" width="76" height="53" as="geometry">
            <mxRectangle width="76" height="53" as="alternateBounds" />
          </mxGeometry>
        </mxCell>
        <mxCell id="_vVUh05pe-uiF_YAsJHq-103" style="connectable=0;recursiveResize=0;strokeColor=inherit;fillColor=inherit;fontStyle=0;align=center;whiteSpace=wrap;html=1;" vertex="1" parent="_vVUh05pe-uiF_YAsJHq-67">
          <mxGeometry x="683" width="77" height="53" as="geometry">
            <mxRectangle width="77" height="53" as="alternateBounds" />
          </mxGeometry>
        </mxCell>
        <mxCell id="_vVUh05pe-uiF_YAsJHq-98" style="connectable=0;recursiveResize=0;strokeColor=inherit;fillColor=inherit;fontStyle=0;align=center;whiteSpace=wrap;html=1;" vertex="1" parent="_vVUh05pe-uiF_YAsJHq-67">
          <mxGeometry x="760" width="75" height="53" as="geometry">
            <mxRectangle width="75" height="53" as="alternateBounds" />
          </mxGeometry>
        </mxCell>
        <mxCell id="_vVUh05pe-uiF_YAsJHq-93" style="connectable=0;recursiveResize=0;strokeColor=inherit;fillColor=inherit;fontStyle=0;align=center;whiteSpace=wrap;html=1;" vertex="1" parent="_vVUh05pe-uiF_YAsJHq-67">
          <mxGeometry x="835" width="76" height="53" as="geometry">
            <mxRectangle width="76" height="53" as="alternateBounds" />
          </mxGeometry>
        </mxCell>
        <mxCell id="_vVUh05pe-uiF_YAsJHq-88" style="connectable=0;recursiveResize=0;strokeColor=inherit;fillColor=inherit;fontStyle=0;align=center;whiteSpace=wrap;html=1;" vertex="1" parent="_vVUh05pe-uiF_YAsJHq-67">
          <mxGeometry x="911" width="75" height="53" as="geometry">
            <mxRectangle width="75" height="53" as="alternateBounds" />
          </mxGeometry>
        </mxCell>
        <mxCell id="_vVUh05pe-uiF_YAsJHq-78" style="connectable=0;recursiveResize=0;strokeColor=inherit;fillColor=inherit;fontStyle=0;align=center;whiteSpace=wrap;html=1;" vertex="1" parent="_vVUh05pe-uiF_YAsJHq-67">
          <mxGeometry x="986" width="76" height="53" as="geometry">
            <mxRectangle width="76" height="53" as="alternateBounds" />
          </mxGeometry>
        </mxCell>
        <mxCell id="_vVUh05pe-uiF_YAsJHq-83" style="connectable=0;recursiveResize=0;strokeColor=inherit;fillColor=inherit;fontStyle=0;align=center;whiteSpace=wrap;html=1;" vertex="1" parent="_vVUh05pe-uiF_YAsJHq-67">
          <mxGeometry x="1062" width="76" height="53" as="geometry">
            <mxRectangle width="76" height="53" as="alternateBounds" />
          </mxGeometry>
        </mxCell>
        <mxCell id="_vVUh05pe-uiF_YAsJHq-138" style="connectable=0;recursiveResize=0;strokeColor=inherit;fillColor=inherit;fontStyle=0;align=center;whiteSpace=wrap;html=1;" vertex="1" parent="_vVUh05pe-uiF_YAsJHq-67">
          <mxGeometry x="1138" width="76" height="53" as="geometry">
            <mxRectangle width="76" height="53" as="alternateBounds" />
          </mxGeometry>
        </mxCell>
        <mxCell id="_vVUh05pe-uiF_YAsJHq-149" style="connectable=0;recursiveResize=0;strokeColor=inherit;fillColor=inherit;fontStyle=0;align=center;whiteSpace=wrap;html=1;" vertex="1" parent="_vVUh05pe-uiF_YAsJHq-67">
          <mxGeometry x="1214" width="76" height="53" as="geometry">
            <mxRectangle width="76" height="53" as="alternateBounds" />
          </mxGeometry>
        </mxCell>
        <mxCell id="_vVUh05pe-uiF_YAsJHq-71" value="" style="shape=tableRow;horizontal=0;startSize=0;swimlaneHead=0;swimlaneBody=0;top=0;left=0;bottom=0;right=0;dropTarget=0;collapsible=0;recursiveResize=0;expand=0;fontStyle=1;strokeColor=inherit;fillColor=#EAF2D3;" vertex="1" parent="_vVUh05pe-uiF_YAsJHq-54">
          <mxGeometry y="218" width="1290" height="49" as="geometry" />
        </mxCell>
        <mxCell id="_vVUh05pe-uiF_YAsJHq-72" value="Value 10" style="connectable=0;recursiveResize=0;strokeColor=inherit;fillColor=inherit;whiteSpace=wrap;html=1;" vertex="1" parent="_vVUh05pe-uiF_YAsJHq-71">
          <mxGeometry width="76" height="49" as="geometry">
            <mxRectangle width="76" height="49" as="alternateBounds" />
          </mxGeometry>
        </mxCell>
        <mxCell id="_vVUh05pe-uiF_YAsJHq-73" value="Value 11" style="connectable=0;recursiveResize=0;strokeColor=inherit;fillColor=inherit;whiteSpace=wrap;html=1;" vertex="1" parent="_vVUh05pe-uiF_YAsJHq-71">
          <mxGeometry x="76" width="76" height="49" as="geometry">
            <mxRectangle width="76" height="49" as="alternateBounds" />
          </mxGeometry>
        </mxCell>
        <mxCell id="_vVUh05pe-uiF_YAsJHq-74" value="Value 12" style="connectable=0;recursiveResize=0;strokeColor=inherit;fillColor=inherit;whiteSpace=wrap;html=1;" vertex="1" parent="_vVUh05pe-uiF_YAsJHq-71">
          <mxGeometry x="152" width="77" height="49" as="geometry">
            <mxRectangle width="77" height="49" as="alternateBounds" />
          </mxGeometry>
        </mxCell>
        <mxCell id="_vVUh05pe-uiF_YAsJHq-134" style="connectable=0;recursiveResize=0;strokeColor=inherit;fillColor=inherit;whiteSpace=wrap;html=1;" vertex="1" parent="_vVUh05pe-uiF_YAsJHq-71">
          <mxGeometry x="229" width="76" height="49" as="geometry">
            <mxRectangle width="76" height="49" as="alternateBounds" />
          </mxGeometry>
        </mxCell>
        <mxCell id="_vVUh05pe-uiF_YAsJHq-129" style="connectable=0;recursiveResize=0;strokeColor=inherit;fillColor=inherit;whiteSpace=wrap;html=1;" vertex="1" parent="_vVUh05pe-uiF_YAsJHq-71">
          <mxGeometry x="305" width="74" height="49" as="geometry">
            <mxRectangle width="74" height="49" as="alternateBounds" />
          </mxGeometry>
        </mxCell>
        <mxCell id="_vVUh05pe-uiF_YAsJHq-124" style="connectable=0;recursiveResize=0;strokeColor=inherit;fillColor=inherit;whiteSpace=wrap;html=1;" vertex="1" parent="_vVUh05pe-uiF_YAsJHq-71">
          <mxGeometry x="379" width="77" height="49" as="geometry">
            <mxRectangle width="77" height="49" as="alternateBounds" />
          </mxGeometry>
        </mxCell>
        <mxCell id="_vVUh05pe-uiF_YAsJHq-119" style="connectable=0;recursiveResize=0;strokeColor=inherit;fillColor=inherit;whiteSpace=wrap;html=1;" vertex="1" parent="_vVUh05pe-uiF_YAsJHq-71">
          <mxGeometry x="456" width="76" height="49" as="geometry">
            <mxRectangle width="76" height="49" as="alternateBounds" />
          </mxGeometry>
        </mxCell>
        <mxCell id="_vVUh05pe-uiF_YAsJHq-114" style="connectable=0;recursiveResize=0;strokeColor=inherit;fillColor=inherit;whiteSpace=wrap;html=1;" vertex="1" parent="_vVUh05pe-uiF_YAsJHq-71">
          <mxGeometry x="532" width="75" height="49" as="geometry">
            <mxRectangle width="75" height="49" as="alternateBounds" />
          </mxGeometry>
        </mxCell>
        <mxCell id="_vVUh05pe-uiF_YAsJHq-109" style="connectable=0;recursiveResize=0;strokeColor=inherit;fillColor=inherit;whiteSpace=wrap;html=1;" vertex="1" parent="_vVUh05pe-uiF_YAsJHq-71">
          <mxGeometry x="607" width="76" height="49" as="geometry">
            <mxRectangle width="76" height="49" as="alternateBounds" />
          </mxGeometry>
        </mxCell>
        <mxCell id="_vVUh05pe-uiF_YAsJHq-104" style="connectable=0;recursiveResize=0;strokeColor=inherit;fillColor=inherit;whiteSpace=wrap;html=1;" vertex="1" parent="_vVUh05pe-uiF_YAsJHq-71">
          <mxGeometry x="683" width="77" height="49" as="geometry">
            <mxRectangle width="77" height="49" as="alternateBounds" />
          </mxGeometry>
        </mxCell>
        <mxCell id="_vVUh05pe-uiF_YAsJHq-99" style="connectable=0;recursiveResize=0;strokeColor=inherit;fillColor=inherit;whiteSpace=wrap;html=1;" vertex="1" parent="_vVUh05pe-uiF_YAsJHq-71">
          <mxGeometry x="760" width="75" height="49" as="geometry">
            <mxRectangle width="75" height="49" as="alternateBounds" />
          </mxGeometry>
        </mxCell>
        <mxCell id="_vVUh05pe-uiF_YAsJHq-94" style="connectable=0;recursiveResize=0;strokeColor=inherit;fillColor=inherit;whiteSpace=wrap;html=1;" vertex="1" parent="_vVUh05pe-uiF_YAsJHq-71">
          <mxGeometry x="835" width="76" height="49" as="geometry">
            <mxRectangle width="76" height="49" as="alternateBounds" />
          </mxGeometry>
        </mxCell>
        <mxCell id="_vVUh05pe-uiF_YAsJHq-89" style="connectable=0;recursiveResize=0;strokeColor=inherit;fillColor=inherit;whiteSpace=wrap;html=1;" vertex="1" parent="_vVUh05pe-uiF_YAsJHq-71">
          <mxGeometry x="911" width="75" height="49" as="geometry">
            <mxRectangle width="75" height="49" as="alternateBounds" />
          </mxGeometry>
        </mxCell>
        <mxCell id="_vVUh05pe-uiF_YAsJHq-79" style="connectable=0;recursiveResize=0;strokeColor=inherit;fillColor=inherit;whiteSpace=wrap;html=1;" vertex="1" parent="_vVUh05pe-uiF_YAsJHq-71">
          <mxGeometry x="986" width="76" height="49" as="geometry">
            <mxRectangle width="76" height="49" as="alternateBounds" />
          </mxGeometry>
        </mxCell>
        <mxCell id="_vVUh05pe-uiF_YAsJHq-84" style="connectable=0;recursiveResize=0;strokeColor=inherit;fillColor=inherit;whiteSpace=wrap;html=1;" vertex="1" parent="_vVUh05pe-uiF_YAsJHq-71">
          <mxGeometry x="1062" width="76" height="49" as="geometry">
            <mxRectangle width="76" height="49" as="alternateBounds" />
          </mxGeometry>
        </mxCell>
        <mxCell id="_vVUh05pe-uiF_YAsJHq-139" style="connectable=0;recursiveResize=0;strokeColor=inherit;fillColor=inherit;whiteSpace=wrap;html=1;" vertex="1" parent="_vVUh05pe-uiF_YAsJHq-71">
          <mxGeometry x="1138" width="76" height="49" as="geometry">
            <mxRectangle width="76" height="49" as="alternateBounds" />
          </mxGeometry>
        </mxCell>
        <mxCell id="_vVUh05pe-uiF_YAsJHq-150" style="connectable=0;recursiveResize=0;strokeColor=inherit;fillColor=inherit;whiteSpace=wrap;html=1;" vertex="1" parent="_vVUh05pe-uiF_YAsJHq-71">
          <mxGeometry x="1214" width="76" height="49" as="geometry">
            <mxRectangle width="76" height="49" as="alternateBounds" />
          </mxGeometry>
        </mxCell>
        <mxCell id="_vVUh05pe-uiF_YAsJHq-145" value="&lt;font style=&quot;font-size: 30px;&quot;&gt;&lt;b&gt;&lt;u&gt;Price Prediction History&lt;/u&gt;&lt;/b&gt;&lt;/font&gt;" style="text;html=1;strokeColor=none;fillColor=none;align=center;verticalAlign=middle;whiteSpace=wrap;rounded=0;" vertex="1" parent="1">
          <mxGeometry x="519" y="270" width="410" height="30" as="geometry" />
        </mxCell>
        <mxCell id="_vVUh05pe-uiF_YAsJHq-151" value="Delete" style="strokeWidth=1;shadow=0;dashed=0;align=center;html=1;shape=mxgraph.mockup.buttons.button;strokeColor=#b85450;mainText=;buttonStyle=round;fontSize=17;fontStyle=1;fillColor=#f8cecc;whiteSpace=wrap;" vertex="1" parent="1">
          <mxGeometry x="1277" y="461" width="70" height="30" as="geometry" />
        </mxCell>
        <mxCell id="_vVUh05pe-uiF_YAsJHq-152" value="Delete" style="strokeWidth=1;shadow=0;dashed=0;align=center;html=1;shape=mxgraph.mockup.buttons.button;strokeColor=#b85450;mainText=;buttonStyle=round;fontSize=17;fontStyle=1;fillColor=#f8cecc;whiteSpace=wrap;" vertex="1" parent="1">
          <mxGeometry x="1277" y="514" width="70" height="30" as="geometry" />
        </mxCell>
        <mxCell id="_vVUh05pe-uiF_YAsJHq-154" value="Delete" style="strokeWidth=1;shadow=0;dashed=0;align=center;html=1;shape=mxgraph.mockup.buttons.button;strokeColor=#b85450;mainText=;buttonStyle=round;fontSize=17;fontStyle=1;fillColor=#f8cecc;whiteSpace=wrap;" vertex="1" parent="1">
          <mxGeometry x="1277" y="566" width="70" height="30" as="geometry" />
        </mxCell>
        <mxCell id="_vVUh05pe-uiF_YAsJHq-155" value="Delete" style="strokeWidth=1;shadow=0;dashed=0;align=center;html=1;shape=mxgraph.mockup.buttons.button;strokeColor=#b85450;mainText=;buttonStyle=round;fontSize=17;fontStyle=1;fillColor=#f8cecc;whiteSpace=wrap;" vertex="1" parent="1">
          <mxGeometry x="1277" y="618" width="70" height="30" as="geometry" />
        </mxCell>
      </root>
    </mxGraphModel>
  </diagram>
</mxfile>
